<?xml version="1.0" encoding="UTF-8" standalone="no"?>
<!-- Created with Inkscape (http://www.inkscape.org/) -->

<svg
   width="26.595985mm"
   height="17.434317mm"
   viewBox="0 0 26.595985 17.434317"
   version="1.1"
   id="svg1"
   xmlns="http://www.w3.org/2000/svg"
   xmlns:svg="http://www.w3.org/2000/svg">
  <defs
     id="defs1" />
  <g
     id="layer1"
     transform="translate(-84.977598,-44.360578)">
    <path
       d="m 92.855154,56.781913 q 0,0 -0.04939,0.09878 -0.518584,0.592668 -0.814918,0.592668 -0.246945,0 -3.309063,-1.852088 -3.037424,-1.852087 -3.531314,-2.271894 -0.172861,-0.123472 -0.172861,-0.296334 0,-0.22225 0.296334,-0.419806 l 6.371181,-4.148676 q 0.938391,0.296334 0.938391,0.98778 0,0.22225 -2.592923,1.679226 -1.555753,0.889002 -3.136201,1.753309 1.037169,0.666752 2.864562,1.679226 2.173116,1.160642 2.913951,1.605143 0.22225,0.543279 0.22225,0.592668 z m 9.853096,-12.075611 q -0.29633,0.49389 -0.81492,1.531059 l -4.617869,11.087831 q -1.876782,4.469704 -2.96334,4.469704 -0.469196,0 -0.469196,-0.395112 0,-0.22225 0.197556,-0.49389 0.222251,-0.271639 0.395112,-0.49389 1.382892,-2.222505 2.864562,-5.778513 1.210031,-3.012729 2.395367,-6.025458 0.543278,-1.358197 0.740838,-2.148421 0.0247,-0.444501 0.24694,-1.25942 0.14817,-0.345723 0.56798,-0.592668 0.4198,-0.246945 0.81491,-0.246945 0.32103,0 0.64206,0.345723 z m 8.86534,8.17388 q 0,0.246945 -0.29633,0.444501 l -6.39588,4.148676 q -0.93839,-0.296334 -0.93839,-0.98778 0,-0.246945 2.59292,-1.703921 1.58045,-0.864307 3.1609,-1.728615 -1.03717,-0.691446 -2.86456,-1.679226 -2.17312,-1.160641 -2.91396,-1.605142 -0.22225,-0.543279 -0.22225,-0.592668 0.0247,-0.04939 0.0247,-0.09878 0.54328,-0.592668 0.83961,-0.592668 0.24695,0 3.28437,1.852087 3.03742,1.852088 3.55601,2.271894 0.17286,0.123473 0.17286,0.27164 z"
       id="text1"
       style="font-size:19.7556px;font-family:Noteworthy;-inkscape-font-specification:'Noteworthy, Normal';stroke-width:0.264583"
       aria-label="&lt;/&gt;" />
  </g>
</svg>
